<svg xmlns="http://www.w3.org/2000/svg" width="250" height="600"><rect width="250" height="600" x="0" y="0" fill="#FFFFFF" id="backgorund"/><g transform="translate(50,100)" id="viz"><g fill="none" font-size="10" font-family="sans-serif" text-anchor="middle"><path class="domain" stroke="currentColor" d="M0.5,0.5H125.5"/><g class="tick" opacity="1" transform="translate(13.354700854700855,0)"><line stroke="currentColor" y2="-6"/><text fill="currentColor" y="-9" dy="3.4641016151377544" dx="3.4641016151377544" text-anchor="start" transform="rotate(-45)">Hip Hop</text></g><g class="tick" opacity="1" transform="translate(37.92735042735043,0)"><line stroke="currentColor" y2="-6"/><text fill="currentColor" y="-9" dy="3.4641016151377544" dx="3.4641016151377544" text-anchor="start" transform="rotate(-45)">Rock</text></g><g class="tick" opacity="1" transform="translate(62.5,0)"><line stroke="currentColor" y2="-6"/><text fill="currentColor" y="-9" dy="3.4641016151377544" dx="3.4641016151377544" text-anchor="start" transform="rotate(-45)">Dance/Electronic</text></g><g class="tick" opacity="1" transform="translate(87.07264957264958,0)"><line stroke="currentColor" y2="-6"/><text fill="currentColor" y="-9" dy="3.4641016151377544" dx="3.4641016151377544" text-anchor="start" transform="rotate(-45)">R&amp;B</text></g><g class="tick" opacity="1" transform="translate(111.64529914529915,0)"><line stroke="currentColor" y2="-6"/><text fill="currentColor" y="-9" dy="3.4641016151377544" dx="3.4641016151377544" text-anchor="start" transform="rotate(-45)">Pop</text></g></g><g fill="none" font-size="10" font-family="sans-serif" text-anchor="end"><path class="domain" stroke="currentColor" d="M0.5,0.5V450.5"/><g class="tick" opacity="1" transform="translate(0,13.521634615384624)"><line stroke="currentColor" x2="-6"/><text fill="currentColor" x="-9" dy="0.32em">2000</text></g><g class="tick" opacity="1" transform="translate(0,38.401442307692314)"><line stroke="currentColor" x2="-6"/><text fill="currentColor" x="-9" dy="0.32em">2002</text></g><g class="tick" opacity="1" transform="translate(0,63.28125)"><line stroke="currentColor" x2="-6"/><text fill="currentColor" x="-9" dy="0.32em">2003</text></g><g class="tick" opacity="1" transform="translate(0,88.1610576923077)"><line stroke="currentColor" x2="-6"/><text fill="currentColor" x="-9" dy="0.32em">2004</text></g><g class="tick" opacity="1" transform="translate(0,113.04086538461539)"><line stroke="currentColor" x2="-6"/><text fill="currentColor" x="-9" dy="0.32em">2005</text></g><g class="tick" opacity="1" transform="translate(0,137.92067307692307)"><line stroke="currentColor" x2="-6"/><text fill="currentColor" x="-9" dy="0.32em">2006</text></g><g class="tick" opacity="1" transform="translate(0,162.80048076923075)"><line stroke="currentColor" x2="-6"/><text fill="currentColor" x="-9" dy="0.32em">2007</text></g><g class="tick" opacity="1" transform="translate(0,187.68028846153845)"><line stroke="currentColor" x2="-6"/><text fill="currentColor" x="-9" dy="0.32em">2008</text></g><g class="tick" opacity="1" transform="translate(0,212.56009615384613)"><line stroke="currentColor" x2="-6"/><text fill="currentColor" x="-9" dy="0.32em">2009</text></g><g class="tick" opacity="1" transform="translate(0,237.4399038461538)"><line stroke="currentColor" x2="-6"/><text fill="currentColor" x="-9" dy="0.32em">2010</text></g><g class="tick" opacity="1" transform="translate(0,262.31971153846155)"><line stroke="currentColor" x2="-6"/><text fill="currentColor" x="-9" dy="0.32em">2011</text></g><g class="tick" opacity="1" transform="translate(0,287.1995192307692)"><line stroke="currentColor" x2="-6"/><text fill="currentColor" x="-9" dy="0.32em">2013</text></g><g class="tick" opacity="1" transform="translate(0,312.0793269230769)"><line stroke="currentColor" x2="-6"/><text fill="currentColor" x="-9" dy="0.32em">2014</text></g><g class="tick" opacity="1" transform="translate(0,336.9591346153846)"><line stroke="currentColor" x2="-6"/><text fill="currentColor" x="-9" dy="0.32em">2015</text></g><g class="tick" opacity="1" transform="translate(0,361.8389423076923)"><line stroke="currentColor" x2="-6"/><text fill="currentColor" x="-9" dy="0.32em">2016</text></g><g class="tick" opacity="1" transform="translate(0,386.71875)"><line stroke="currentColor" x2="-6"/><text fill="currentColor" x="-9" dy="0.32em">2017</text></g><g class="tick" opacity="1" transform="translate(0,411.5985576923077)"><line stroke="currentColor" x2="-6"/><text fill="currentColor" x="-9" dy="0.32em">2018</text></g><g class="tick" opacity="1" transform="translate(0,436.47836538461536)"><line stroke="currentColor" x2="-6"/><text fill="currentColor" x="-9" dy="0.32em">2019</text></g></g><text dx="-9" dy="-9" style="text-anchor: end; font-family: Arial, sans-serif; font-size: 12px; fill: rgb(123, 123, 123); font-weight: bold;">year</text><text x="94.75230867899737" y="94.75230867899737" dx="3.4641016151377544" dy="-3.4641016151377544" transform="rotate(-45)" style="text-anchor: start; font-family: Arial, sans-serif; font-size: 12px; fill: rgb(123, 123, 123); font-weight: bold;">genre</text><rect x="2.3322337997569385" y="2.3589432014663494" rx="0" ry="0" width="22.609036673990396" height="22.609036673990396" style="fill: rgb(255, 127, 14);"/><rect x="2.266699811118782" y="27.17321690513588" rx="0" ry="0" width="22.74010465126671" height="22.74010465126671" style="fill: rgb(255, 127, 14);"/><rect x="2.66577407868631" y="52.4520988650111" rx="0" ry="0" width="21.941956116131653" height="21.941956116131653" style="fill: rgb(255, 127, 14);"/><rect x="2.66577407868631" y="77.33190655731879" rx="0" ry="0" width="21.941956116131653" height="21.941956116131653" style="fill: rgb(255, 127, 14);"/><rect x="2.5982597303253616" y="102.14419990126554" rx="0" ry="0" width="22.07698481285355" height="22.07698481285355" style="fill: rgb(255, 127, 14);"/><rect x="2.5982597303253616" y="127.02400759357323" rx="0" ry="0" width="22.07698481285355" height="22.07698481285355" style="fill: rgb(255, 127, 14);"/><rect x="2.733706484532661" y="152.0392620400882" rx="0" ry="0" width="21.80609130443895" height="21.80609130443895" style="fill: rgb(255, 127, 14);"/><rect x="2.5982597303253616" y="176.78362297818862" rx="0" ry="0" width="22.07698481285355" height="22.07698481285355" style="fill: rgb(255, 127, 14);"/><rect x="2.5982597303253616" y="201.6634306704963" rx="0" ry="0" width="22.07698481285355" height="22.07698481285355" style="fill: rgb(255, 127, 14);"/><rect x="2.66577407868631" y="226.6107527111649" rx="0" ry="0" width="21.941956116131653" height="21.941956116131653" style="fill: rgb(255, 127, 14);"/><rect x="2.5982597303253616" y="251.42304605511168" rx="0" ry="0" width="22.07698481285355" height="22.07698481285355" style="fill: rgb(255, 127, 14);"/><rect x="26.70940170940171" y="275.84134615384613" rx="0" ry="0" width="23" height="23" style="fill: rgb(148, 103, 189);"/><rect x="51.54344906579321" y="300.98255162989574" rx="0" ry="0" width="22.47720443251615" height="22.47720443251615" style="fill: rgb(31, 119, 180);"/><rect x="76.05018251770566" y="325.7964432014663" rx="0" ry="0" width="22.609036673990396" height="22.609036673990396" style="fill: rgb(214, 39, 40);"/><rect x="2.464454937021854" y="350.80847203103895" rx="0" ry="0" width="22.344594399460565" height="22.344594399460565" style="fill: rgb(255, 127, 14);"/><rect x="100.68874821109236" y="375.62197470681883" rx="0" ry="0" width="22.47720443251615" height="22.47720443251615" style="fill: rgb(44, 160, 44);"/><rect x="51.47753294505608" y="400.43586627838937" rx="0" ry="0" width="22.609036673990396" height="22.609036673990396" style="fill: rgb(31, 119, 180);"/><rect x="2.3981499204940615" y="425.3815900914342" rx="0" ry="0" width="22.47720443251615" height="22.47720443251615" style="fill: rgb(255, 127, 14);"/><g id="labels"><g transform="translate(13.636752136752136,13.663461538461547)"><text x="0" y="0" text-anchor="middle" dominant-baseline="text-before-edge" transform="translate(0,0)"/></g><g transform="translate(13.636752136752136,38.54326923076924)"><text x="0" y="0" text-anchor="middle" dominant-baseline="text-before-edge" transform="translate(0,0)"/></g><g transform="translate(13.636752136752136,63.42307692307693)"><text x="0" y="0" text-anchor="middle" dominant-baseline="text-before-edge" transform="translate(0,0)"/></g><g transform="translate(13.636752136752136,88.30288461538461)"><text x="0" y="0" text-anchor="middle" dominant-baseline="text-before-edge" transform="translate(0,0)"/></g><g transform="translate(13.636752136752136,113.1826923076923)"><text x="0" y="0" text-anchor="middle" dominant-baseline="text-before-edge" transform="translate(0,0)"/></g><g transform="translate(13.636752136752136,138.0625)"><text x="0" y="0" text-anchor="middle" dominant-baseline="text-before-edge" transform="translate(0,0)"/></g><g transform="translate(13.636752136752136,162.94230769230768)"><text x="0" y="0" text-anchor="middle" dominant-baseline="text-before-edge" transform="translate(0,0)"/></g><g transform="translate(13.636752136752136,187.8221153846154)"><text x="0" y="0" text-anchor="middle" dominant-baseline="text-before-edge" transform="translate(0,0)"/></g><g transform="translate(13.636752136752136,212.70192307692307)"><text x="0" y="0" text-anchor="middle" dominant-baseline="text-before-edge" transform="translate(0,0)"/></g><g transform="translate(13.636752136752136,237.58173076923075)"><text x="0" y="0" text-anchor="middle" dominant-baseline="text-before-edge" transform="translate(0,0)"/></g><g transform="translate(13.636752136752136,262.46153846153845)"><text x="0" y="0" text-anchor="middle" dominant-baseline="text-before-edge" transform="translate(0,0)"/></g><g transform="translate(38.20940170940171,287.34134615384613)"><text x="0" y="0" text-anchor="middle" dominant-baseline="text-before-edge" transform="translate(0,0)"/></g><g transform="translate(62.782051282051285,312.2211538461538)"><text x="0" y="0" text-anchor="middle" dominant-baseline="text-before-edge" transform="translate(0,0)"/></g><g transform="translate(87.35470085470087,337.1009615384615)"><text x="0" y="0" text-anchor="middle" dominant-baseline="text-before-edge" transform="translate(0,0)"/></g><g transform="translate(13.636752136752136,361.9807692307692)"><text x="0" y="0" text-anchor="middle" dominant-baseline="text-before-edge" transform="translate(0,0)"/></g><g transform="translate(111.92735042735043,386.8605769230769)"><text x="0" y="0" text-anchor="middle" dominant-baseline="text-before-edge" transform="translate(0,0)"/></g><g transform="translate(62.782051282051285,411.7403846153846)"><text x="0" y="0" text-anchor="middle" dominant-baseline="text-before-edge" transform="translate(0,0)"/></g><g transform="translate(13.636752136752136,436.62019230769226)"><text x="0" y="0" text-anchor="middle" dominant-baseline="text-before-edge" transform="translate(0,0)"/></g></g></g></svg>