<svg xmlns="http://www.w3.org/2000/svg" width="1000" height="1000"><rect width="1000" height="1000" x="0" y="0" fill="#FFFFFF" id="backgorund"/><g id="viz"><g transform="translate(0,0)"><g id="pie" transform="translate(125,170.66666666666666)"><path fill="#1f77b4" stroke="#FFFFFF" d="M7.531577814756223e-15,-123A123,123,0,1,1,-7.531577814756223e-15,123A123,123,0,1,1,7.531577814756223e-15,-123Z"/><g id="labels"><g transform="translate(3.765788907378111e-15,61.5)"><text text-anchor="middle" style="font-family: Arial, sans-serif; font-size: 10px; fill: black; font-weight: normal;">426</text></g></g></g><text y="43.66666666666666" x="125" style="font-family: Arial, sans-serif; font-size: 12px; fill: black; font-weight: bold; dominant-baseline: auto; text-anchor: middle;">Hip Hop</text></g><g transform="translate(250,0)"><g id="pie" transform="translate(125,170.66666666666666)"><path fill="#1f77b4" stroke="#FFFFFF" d="M2.779042347814962e-15,-45.385205754832164A45.385205754832164,45.385205754832164,0,1,1,-2.779042347814962e-15,45.385205754832164A45.385205754832164,45.385205754832164,0,1,1,2.779042347814962e-15,-45.385205754832164Z"/><g id="labels"><g transform="translate(1.389521173907481e-15,22.692602877416082)"><text text-anchor="middle" style="font-family: Arial, sans-serif; font-size: 10px; fill: black; font-weight: normal;">58</text></g></g></g><text y="121.2814609118345" x="125" style="font-family: Arial, sans-serif; font-size: 12px; fill: black; font-weight: bold; dominant-baseline: auto; text-anchor: middle;">Pop</text></g><g transform="translate(500,0)"><g id="pie" transform="translate(125,170.66666666666666)"><path fill="#1f77b4" stroke="#FFFFFF" d="M1.787667681562485e-15,-29.194828791568785A29.194828791568785,29.194828791568785,0,1,1,-1.787667681562485e-15,29.194828791568785A29.194828791568785,29.194828791568785,0,1,1,1.787667681562485e-15,-29.194828791568785Z"/><g id="labels"><g transform="translate(8.938338407812426e-16,14.597414395784392)"><text text-anchor="middle" style="font-family: Arial, sans-serif; font-size: 10px; fill: black; font-weight: normal;">24</text></g></g></g><text y="137.47183787509786" x="125" style="font-family: Arial, sans-serif; font-size: 12px; fill: black; font-weight: bold; dominant-baseline: auto; text-anchor: middle;">Dance/Electronic</text></g><g transform="translate(750,0)"><g id="pie" transform="translate(125,170.66666666666666)"><path fill="#1f77b4" stroke="#FFFFFF" d="M1.711561497987849e-15,-27.951920491353178A27.951920491353178,27.951920491353178,0,1,1,-1.711561497987849e-15,27.951920491353178A27.951920491353178,27.951920491353178,0,1,1,1.711561497987849e-15,-27.951920491353178Z"/><g id="labels"><g transform="translate(8.557807489939245e-16,13.975960245676589)"><text text-anchor="middle" style="font-family: Arial, sans-serif; font-size: 10px; fill: black; font-weight: normal;">22</text></g></g></g><text y="138.71474617531348" x="125" style="font-family: Arial, sans-serif; font-size: 12px; fill: black; font-weight: bold; dominant-baseline: auto; text-anchor: middle;">R&amp;B</text></g><g transform="translate(0,333.3333333333333)"><g id="pie" transform="translate(125,170.66666666666666)"><path fill="#1f77b4" stroke="#FFFFFF" d="M1.264071940140867e-15,-20.64386141409855A20.64386141409855,20.64386141409855,0,1,1,-1.264071940140867e-15,20.64386141409855A20.64386141409855,20.64386141409855,0,1,1,1.264071940140867e-15,-20.64386141409855Z"/><g id="labels"><g transform="translate(6.320359700704335e-16,10.321930707049274)"><text text-anchor="middle" style="font-family: Arial, sans-serif; font-size: 10px; fill: black; font-weight: normal;">12</text></g></g></g><text y="146.0228052525681" x="125" style="font-family: Arial, sans-serif; font-size: 12px; fill: black; font-weight: bold; dominant-baseline: auto; text-anchor: middle;">Rock</text></g><g transform="translate(250,333.3333333333333)"><g id="pie" transform="translate(125,170.66666666666666)"><path fill="#1f77b4" stroke="#FFFFFF" d="M7.298122749153821e-16,-11.918738944543126A11.918738944543126,11.918738944543126,0,1,1,-7.298122749153821e-16,11.918738944543126A11.918738944543126,11.918738944543126,0,1,1,7.298122749153821e-16,-11.918738944543126Z"/><g id="labels"><g transform="translate(3.6490613745769103e-16,5.959369472271563)"><text text-anchor="middle" style="font-family: Arial, sans-serif; font-size: 10px; fill: black; font-weight: normal;">4</text></g></g></g><text y="154.74792772212353" x="125" style="font-family: Arial, sans-serif; font-size: 12px; fill: black; font-weight: bold; dominant-baseline: auto; text-anchor: middle;">Latin</text></g><g transform="translate(500,333.3333333333333)"><g id="pie" transform="translate(125,170.66666666666666)"><path fill="#1f77b4" stroke="#FFFFFF" d="M5.160552085858476e-16,-8.42782113087864A8.42782113087864,8.42782113087864,0,1,1,-5.160552085858476e-16,8.42782113087864A8.42782113087864,8.42782113087864,0,1,1,5.160552085858476e-16,-8.42782113087864Z"/><g id="labels"><g transform="translate(2.580276042929238e-16,4.21391056543932)"><text text-anchor="middle" style="font-family: Arial, sans-serif; font-size: 10px; fill: black; font-weight: normal;">2</text></g></g></g><text y="158.23884553578802" x="125" style="font-family: Arial, sans-serif; font-size: 12px; fill: black; font-weight: bold; dominant-baseline: auto; text-anchor: middle;">Metal</text></g><g transform="translate(750,333.3333333333333)"><g id="pie" transform="translate(125,170.66666666666666)"><path fill="#1f77b4" stroke="#FFFFFF" d="M3.6490613745769103e-16,-5.959369472271563A5.959369472271563,5.959369472271563,0,1,1,-3.6490613745769103e-16,5.959369472271563A5.959369472271563,5.959369472271563,0,1,1,3.6490613745769103e-16,-5.959369472271563Z"/><g id="labels"><g transform="translate(1.8245306872884551e-16,2.9796847361357814)"><text text-anchor="middle" style="font-family: Arial, sans-serif; font-size: 10px; fill: black; font-weight: normal;">1</text></g></g></g><text y="160.7072971943951" x="125" style="font-family: Arial, sans-serif; font-size: 12px; fill: black; font-weight: bold; dominant-baseline: auto; text-anchor: middle;">Country</text></g><g transform="translate(0,666.6666666666666)"><g id="pie" transform="translate(125,170.66666666666666)"><path fill="#1f77b4" stroke="#FFFFFF" d="M3.6490613745769103e-16,-5.959369472271563A5.959369472271563,5.959369472271563,0,1,1,-3.6490613745769103e-16,5.959369472271563A5.959369472271563,5.959369472271563,0,1,1,3.6490613745769103e-16,-5.959369472271563Z"/><g id="labels"><g transform="translate(1.8245306872884551e-16,2.9796847361357814)"><text text-anchor="middle" style="font-family: Arial, sans-serif; font-size: 10px; fill: black; font-weight: normal;">1</text></g></g></g><text y="160.7072971943951" x="125" style="font-family: Arial, sans-serif; font-size: 12px; fill: black; font-weight: bold; dominant-baseline: auto; text-anchor: middle;">World/Traditional</text></g><g transform="translate(250,666.6666666666666)"><g id="pie" transform="translate(125,170.66666666666666)"><path fill="#1f77b4" stroke="#FFFFFF" d="M0,0Z"/><g id="labels"><g transform="translate(0,0)"><text text-anchor="middle" style="font-family: Arial, sans-serif; font-size: 10px; fill: black; font-weight: normal;">0</text></g></g></g><text y="166.66666666666666" x="125" style="font-family: Arial, sans-serif; font-size: 12px; fill: black; font-weight: bold; dominant-baseline: auto; text-anchor: middle;">Easy Listening</text></g></g></svg>