<svg xmlns="http://www.w3.org/2000/svg" width="250" height="600"><rect width="250" height="600" x="0" y="0" fill="#FFFFFF" id="backgorund"/><g transform="translate(50,100)" id="viz"><g fill="none" font-size="10" font-family="sans-serif" text-anchor="middle"><path class="domain" stroke="currentColor" d="M0.5,0.5H135.5"/><g class="tick" opacity="1" transform="translate(12.149999999999997,0)"><line stroke="currentColor" y2="-6"/><text fill="currentColor" y="-9" dy="3.4641016151377544" dx="3.4641016151377544" text-anchor="start" transform="rotate(-45)">Country</text></g><g class="tick" opacity="1" transform="translate(34.29,0)"><line stroke="currentColor" y2="-6"/><text fill="currentColor" y="-9" dy="3.4641016151377544" dx="3.4641016151377544" text-anchor="start" transform="rotate(-45)">Dance/Electronic</text></g><g class="tick" opacity="1" transform="translate(56.43,0)"><line stroke="currentColor" y2="-6"/><text fill="currentColor" y="-9" dy="3.4641016151377544" dx="3.4641016151377544" text-anchor="start" transform="rotate(-45)">Hip Hop</text></g><g class="tick" opacity="1" transform="translate(78.57,0)"><line stroke="currentColor" y2="-6"/><text fill="currentColor" y="-9" dy="3.4641016151377544" dx="3.4641016151377544" text-anchor="start" transform="rotate(-45)">Pop</text></g><g class="tick" opacity="1" transform="translate(100.71,0)"><line stroke="currentColor" y2="-6"/><text fill="currentColor" y="-9" dy="3.4641016151377544" dx="3.4641016151377544" text-anchor="start" transform="rotate(-45)">R&amp;B</text></g><g class="tick" opacity="1" transform="translate(122.85,0)"><line stroke="currentColor" y2="-6"/><text fill="currentColor" y="-9" dy="3.4641016151377544" dx="3.4641016151377544" text-anchor="start" transform="rotate(-45)">Rock</text></g></g><g fill="none" font-size="10" font-family="sans-serif" text-anchor="end"><path class="domain" stroke="currentColor" d="M0.5,0.5V450.5"/><g class="tick" opacity="1" transform="translate(0,12.287621359223325)"><line stroke="currentColor" x2="-6"/><text fill="currentColor" x="-9" dy="0.32em">2000</text></g><g class="tick" opacity="1" transform="translate(0,34.67839805825245)"><line stroke="currentColor" x2="-6"/><text fill="currentColor" x="-9" dy="0.32em">2001</text></g><g class="tick" opacity="1" transform="translate(0,57.06917475728157)"><line stroke="currentColor" x2="-6"/><text fill="currentColor" x="-9" dy="0.32em">2002</text></g><g class="tick" opacity="1" transform="translate(0,79.4599514563107)"><line stroke="currentColor" x2="-6"/><text fill="currentColor" x="-9" dy="0.32em">2003</text></g><g class="tick" opacity="1" transform="translate(0,101.85072815533982)"><line stroke="currentColor" x2="-6"/><text fill="currentColor" x="-9" dy="0.32em">2004</text></g><g class="tick" opacity="1" transform="translate(0,124.24150485436894)"><line stroke="currentColor" x2="-6"/><text fill="currentColor" x="-9" dy="0.32em">2005</text></g><g class="tick" opacity="1" transform="translate(0,146.6322815533981)"><line stroke="currentColor" x2="-6"/><text fill="currentColor" x="-9" dy="0.32em">2006</text></g><g class="tick" opacity="1" transform="translate(0,169.0230582524272)"><line stroke="currentColor" x2="-6"/><text fill="currentColor" x="-9" dy="0.32em">2007</text></g><g class="tick" opacity="1" transform="translate(0,191.41383495145632)"><line stroke="currentColor" x2="-6"/><text fill="currentColor" x="-9" dy="0.32em">2008</text></g><g class="tick" opacity="1" transform="translate(0,213.80461165048544)"><line stroke="currentColor" x2="-6"/><text fill="currentColor" x="-9" dy="0.32em">2009</text></g><g class="tick" opacity="1" transform="translate(0,236.19538834951456)"><line stroke="currentColor" x2="-6"/><text fill="currentColor" x="-9" dy="0.32em">2010</text></g><g class="tick" opacity="1" transform="translate(0,258.5861650485437)"><line stroke="currentColor" x2="-6"/><text fill="currentColor" x="-9" dy="0.32em">2011</text></g><g class="tick" opacity="1" transform="translate(0,280.9769417475729)"><line stroke="currentColor" x2="-6"/><text fill="currentColor" x="-9" dy="0.32em">2012</text></g><g class="tick" opacity="1" transform="translate(0,303.36771844660194)"><line stroke="currentColor" x2="-6"/><text fill="currentColor" x="-9" dy="0.32em">2013</text></g><g class="tick" opacity="1" transform="translate(0,325.7584951456311)"><line stroke="currentColor" x2="-6"/><text fill="currentColor" x="-9" dy="0.32em">2014</text></g><g class="tick" opacity="1" transform="translate(0,348.1492718446602)"><line stroke="currentColor" x2="-6"/><text fill="currentColor" x="-9" dy="0.32em">2015</text></g><g class="tick" opacity="1" transform="translate(0,370.54004854368935)"><line stroke="currentColor" x2="-6"/><text fill="currentColor" x="-9" dy="0.32em">2016</text></g><g class="tick" opacity="1" transform="translate(0,392.9308252427184)"><line stroke="currentColor" x2="-6"/><text fill="currentColor" x="-9" dy="0.32em">2017</text></g><g class="tick" opacity="1" transform="translate(0,415.3216019417476)"><line stroke="currentColor" x2="-6"/><text fill="currentColor" x="-9" dy="0.32em">2018</text></g><g class="tick" opacity="1" transform="translate(0,437.71237864077665)"><line stroke="currentColor" x2="-6"/><text fill="currentColor" x="-9" dy="0.32em">2019</text></g></g><text dx="-9" dy="-9" style="text-anchor: end; font-family: Arial, sans-serif; font-size: 12px; fill: rgb(123, 123, 123); font-weight: bold;">year</text><text x="101.82337649086284" y="101.82337649086284" dx="3.4641016151377544" dy="-3.4641016151377544" transform="rotate(-45)" style="text-anchor: start; font-family: Arial, sans-serif; font-size: 12px; fill: rgb(123, 123, 123); font-weight: bold;">genre</text><rect x="3.324346080613834" y="3.3488121000313367" rx="0" ry="0" width="18.171307838772325" height="18.171307838772325" style="fill: rgb(140, 86, 75);"/><rect x="114.37527694172495" y="26.09051966017157" rx="0" ry="0" width="17.46944611655011" height="17.46944611655011" style="fill: rgb(148, 103, 189);"/><rect x="113.23285285549082" y="47.338872272966576" rx="0" ry="0" width="19.754294289018347" height="19.754294289018347" style="fill: rgb(148, 103, 189);"/><rect x="46.62469981286485" y="69.54149592936973" rx="0" ry="0" width="20.130600374270298" height="20.130600374270298" style="fill: rgb(255, 127, 14);"/><rect x="46.62469981286485" y="91.93227262839885" rx="0" ry="0" width="20.130600374270298" height="20.130600374270298" style="fill: rgb(255, 127, 14);"/><rect x="91.6801485864566" y="115.09849810101971" rx="0" ry="0" width="18.5797028270868" height="18.5797028270868" style="fill: rgb(214, 39, 40);"/><rect x="69.20944598664872" y="137.15857220024097" rx="0" ry="0" width="19.24110802670257" height="19.24110802670257" style="fill: rgb(44, 160, 44);"/><rect x="91.61307297595341" y="159.81297588857478" rx="0" ry="0" width="18.713854048093175" height="18.713854048093175" style="fill: rgb(214, 39, 40);"/><rect x="46.68702425227753" y="181.55770386392803" rx="0" ry="0" width="20.00595149544493" height="20.00595149544493" style="fill: rgb(255, 127, 14);"/><rect x="47.46771203886502" y="204.72916834954464" rx="0" ry="0" width="18.444575922269966" height="18.444575922269966" style="fill: rgb(255, 127, 14);"/><rect x="24.54702425227753" y="226.33925726198626" rx="0" ry="0" width="20.00595149544493" height="20.00595149544493" style="fill: rgb(31, 119, 180);"/><rect x="99.38839066288855" y="257.15140037162644" rx="0" ry="0" width="3.1632186742228843" height="3.1632186742228843" style="fill: rgb(214, 39, 40);"/><rect x="70.38651667175888" y="272.6803030795259" rx="0" ry="0" width="16.886966656482237" height="16.886966656482237" style="fill: rgb(44, 160, 44);"/><rect x="55.571633312540534" y="302.39619641933666" rx="0" ry="0" width="2.236733374918922" height="2.236733374918922" style="fill: rgb(255, 127, 14);"/><rect x="46.749739452011084" y="315.9650792578364" rx="0" ry="0" width="19.88052109597782" height="19.88052109597782" style="fill: rgb(255, 127, 14);"/><rect x="68.70275891939163" y="338.168875424246" rx="0" ry="0" width="20.25448216121675" height="20.25448216121675" style="fill: rgb(44, 160, 44);"/><rect x="78.83" y="370.6868932038835" rx="0" ry="0" width="0" height="0" style="fill: rgb(44, 160, 44);"/><rect x="68.58" y="382.8276699029126" rx="0" ry="0" width="20.5" height="20.5" style="fill: rgb(44, 160, 44);"/><rect x="46.62469981286485" y="405.4031464148066" rx="0" ry="0" width="20.130600374270298" height="20.130600374270298" style="fill: rgb(255, 127, 14);"/><rect x="46.749739452011084" y="427.91896275298194" rx="0" ry="0" width="19.88052109597782" height="19.88052109597782" style="fill: rgb(255, 127, 14);"/><g id="labels"><g transform="translate(12.409999999999997,12.4344660194175)"><text x="0" y="0" text-anchor="middle" dominant-baseline="text-before-edge" transform="translate(0,0)"/></g><g transform="translate(123.11,34.825242718446624)"><text x="0" y="0" text-anchor="middle" dominant-baseline="text-before-edge" transform="translate(0,0)"/></g><g transform="translate(123.11,57.21601941747575)"><text x="0" y="0" text-anchor="middle" dominant-baseline="text-before-edge" transform="translate(0,0)"/></g><g transform="translate(56.69,79.60679611650488)"><text x="0" y="0" text-anchor="middle" dominant-baseline="text-before-edge" transform="translate(0,0)"/></g><g transform="translate(56.69,101.997572815534)"><text x="0" y="0" text-anchor="middle" dominant-baseline="text-before-edge" transform="translate(0,0)"/></g><g transform="translate(100.97,124.38834951456312)"><text x="0" y="0" text-anchor="middle" dominant-baseline="text-before-edge" transform="translate(0,0)"/></g><g transform="translate(78.83,146.77912621359226)"><text x="0" y="0" text-anchor="middle" dominant-baseline="text-before-edge" transform="translate(0,0)"/></g><g transform="translate(100.97,169.16990291262138)"><text x="0" y="0" text-anchor="middle" dominant-baseline="text-before-edge" transform="translate(0,0)"/></g><g transform="translate(56.69,191.5606796116505)"><text x="0" y="0" text-anchor="middle" dominant-baseline="text-before-edge" transform="translate(0,0)"/></g><g transform="translate(56.69,213.95145631067962)"><text x="0" y="0" text-anchor="middle" dominant-baseline="text-before-edge" transform="translate(0,0)"/></g><g transform="translate(34.55,236.34223300970874)"><text x="0" y="0" text-anchor="middle" dominant-baseline="text-before-edge" transform="translate(0,0)"/></g><g transform="translate(100.97,258.7330097087379)"><text x="0" y="0" text-anchor="middle" dominant-baseline="text-before-edge" transform="translate(0,0)"/></g><g transform="translate(78.83,281.12378640776706)"><text x="0" y="0" text-anchor="middle" dominant-baseline="text-before-edge" transform="translate(0,0)"/></g><g transform="translate(56.69,303.5145631067961)"><text x="0" y="0" text-anchor="middle" dominant-baseline="text-before-edge" transform="translate(0,0)"/></g><g transform="translate(56.69,325.9053398058253)"><text x="0" y="0" text-anchor="middle" dominant-baseline="text-before-edge" transform="translate(0,0)"/></g><g transform="translate(78.83,348.29611650485435)"><text x="0" y="0" text-anchor="middle" dominant-baseline="text-before-edge" transform="translate(0,0)"/></g><g transform="translate(78.83,370.6868932038835)"><text x="0" y="0" text-anchor="middle" dominant-baseline="text-before-edge" transform="translate(0,0)"/></g><g transform="translate(78.83,393.0776699029126)"><text x="0" y="0" text-anchor="middle" dominant-baseline="text-before-edge" transform="translate(0,0)"/></g><g transform="translate(56.69,415.46844660194176)"><text x="0" y="0" text-anchor="middle" dominant-baseline="text-before-edge" transform="translate(0,0)"/></g><g transform="translate(56.69,437.8592233009708)"><text x="0" y="0" text-anchor="middle" dominant-baseline="text-before-edge" transform="translate(0,0)"/></g></g></g></svg>