<svg xmlns="http://www.w3.org/2000/svg" width="805" height="600"><rect width="805" height="600" x="0" y="0" fill="#FFFFFF" id="backgorund"/><g id="viz"><clipPath id="serieClipPath"><rect x="-50" y="-10" width="805" height="600"/></clipPath><g transform="translate(0,0)"><g transform="translate(50,10)" clip-path="url(#serieClipPath)"><g id="axis"><g transform="translate(0,570)" fill="none" font-size="10" font-family="sans-serif" text-anchor="middle"><path class="domain" stroke="currentColor" d="M0.5,6V0.5H740.5V6"/><g class="tick" opacity="1" transform="translate(0.5,0)"><line stroke="currentColor" y2="6"/><text fill="currentColor" y="9" dy="0.71em">1998</text></g><g class="tick" opacity="1" transform="translate(67.73086496577474,0)"><line stroke="currentColor" y2="6"/><text fill="currentColor" y="9" dy="0.71em">2000</text></g><g class="tick" opacity="1" transform="translate(135.05382700684504,0)"><line stroke="currentColor" y2="6"/><text fill="currentColor" y="9" dy="0.71em">2002</text></g><g class="tick" opacity="1" transform="translate(202.2846919726198,0)"><line stroke="currentColor" y2="6"/><text fill="currentColor" y="9" dy="0.71em">2004</text></g><g class="tick" opacity="1" transform="translate(269.6076540136901,0)"><line stroke="currentColor" y2="6"/><text fill="currentColor" y="9" dy="0.71em">2006</text></g><g class="tick" opacity="1" transform="translate(336.8385189794648,0)"><line stroke="currentColor" y2="6"/><text fill="currentColor" y="9" dy="0.71em">2008</text></g><g class="tick" opacity="1" transform="translate(404.1614810205351,0)"><line stroke="currentColor" y2="6"/><text fill="currentColor" y="9" dy="0.71em">2010</text></g><g class="tick" opacity="1" transform="translate(471.39234598630986,0)"><line stroke="currentColor" y2="6"/><text fill="currentColor" y="9" dy="0.71em">2012</text></g><g class="tick" opacity="1" transform="translate(538.7153080273802,0)"><line stroke="currentColor" y2="6"/><text fill="currentColor" y="9" dy="0.71em">2014</text></g><g class="tick" opacity="1" transform="translate(605.946172993155,0)"><line stroke="currentColor" y2="6"/><text fill="currentColor" y="9" dy="0.71em">2016</text></g><g class="tick" opacity="1" transform="translate(673.2691350342253,0)"><line stroke="currentColor" y2="6"/><text fill="currentColor" y="9" dy="0.71em">2018</text></g><g class="tick" opacity="1" transform="translate(740.5,0)"><line stroke="currentColor" y2="6"/><text fill="currentColor" y="9" dy="0.71em">2020</text></g><text x="740" dy="-5" text-anchor="end" style="font-family: Arial, sans-serif; font-size: 12px; fill: rgb(123, 123, 123); font-weight: bold;">year</text></g><g transform="translate(0,0)" fill="none" font-size="10" font-family="sans-serif" text-anchor="end"><path class="domain" stroke="currentColor" d="M0.5,570.5V0.5"/><g class="tick" opacity="1" transform="translate(0,570.5)"><line stroke="currentColor" x2="-6"/><text fill="currentColor" x="-9" dy="0.32em">0.40</text></g><g class="tick" opacity="1" transform="translate(0,489.0714285714286)"><line stroke="currentColor" x2="-6"/><text fill="currentColor" x="-9" dy="0.32em">0.45</text></g><g class="tick" opacity="1" transform="translate(0,407.6428571428572)"><line stroke="currentColor" x2="-6"/><text fill="currentColor" x="-9" dy="0.32em">0.50</text></g><g class="tick" opacity="1" transform="translate(0,326.2142857142857)"><line stroke="currentColor" x2="-6"/><text fill="currentColor" x="-9" dy="0.32em">0.55</text></g><g class="tick" opacity="1" transform="translate(0,244.78571428571436)"><line stroke="currentColor" x2="-6"/><text fill="currentColor" x="-9" dy="0.32em">0.60</text></g><g class="tick" opacity="1" transform="translate(0,163.35714285714286)"><line stroke="currentColor" x2="-6"/><text fill="currentColor" x="-9" dy="0.32em">0.65</text></g><g class="tick" opacity="1" transform="translate(0,81.92857142857152)"><line stroke="currentColor" x2="-6"/><text fill="currentColor" x="-9" dy="0.32em">0.70</text></g><g class="tick" opacity="1" transform="translate(0,0.5)"><line stroke="currentColor" x2="-6"/><text fill="currentColor" x="-9" dy="0.32em">0.75</text></g><text x="4" text-anchor="start" dominant-baseline="hanging" style="font-family: Arial, sans-serif; font-size: 12px; fill: rgb(123, 123, 123); font-weight: bold;">valence</text></g></g><g id="viz"><g id="0"><path d="M33.61543248288737,302.7351428571432C33.61543248288737,302.7351428571432,56.010371292263024,203.39787394957952,67.23086496577474,179.95714285714243C78.45135863928647,156.51641176470534,89.71790085044597,141.92813725490146,100.93839452395768,162.09075630252065C112.1588881974694,182.25337535013983,123.34868284588259,277.36800249829696,134.55382700684504,300.9328571428575C145.7589711678075,324.497711787418,156.96411532876994,315.27345559845514,168.1692594897324,303.47988416988375C179.3744036506949,291.68631274131235,190.56419829910809,223.67179021879062,201.7846919726198,230.1714285714291C213.00518564613154,236.67106692406756,224.271727857291,339.4487287784682,235.49222153080274,342.4777142857145C246.71271520431446,345.50669979296083,257.90250985272763,257.1608138371292,269.1076540136901,248.34534161490694C280.3127981746525,239.5298693926847,291.51794233561503,277.8770067427677,302.7230864965775,289.58488095238107C313.9282306575399,301.2927551619944,325.1180253059531,320.0384198806535,336.3385189794648,318.59258687258693C347.55901265297655,317.14675386452035,358.82555486413605,290.71062017186165,370.0460485376478,280.9098829039815C381.2665422111595,271.10914563610135,392.4563368595727,248.97045391661314,403.6614810205351,259.788163265306C414.86662518149757,270.60587261399894,426.0717693424601,343.35668108797563,437.2769135034225,345.8161389961389C448.48205766438497,348.2755969043021,459.67185231279814,253.4457993047395,470.89234598630986,274.54491071428566C482.1128396598216,295.64402212383186,493.37938187098115,454.87696604185135,504.5998755444929,472.41080745341594C515.8203692180045,489.94464886498054,527.0101638664178,389.9369100857731,538.2153080273802,379.7479591836732C549.4204521883426,369.55900828157326,560.625596349305,410.60527292110874,571.8307405102676,411.2771020408164C583.0358846712301,411.948931160524,594.2256793196432,383.9449245251954,605.446172993155,383.77893390191906C616.6666666666667,383.6129432786427,627.9332088778262,402.99431395147826,639.1537025513379,410.2811583011584C650.3741962248496,417.5680026508386,661.5639908732628,453.78788535788556,672.7691350342253,427.5000000000001C683.9742791951878,401.21211464211467,695.1794233561502,249.97527472527446,706.3845675171126,252.55384615384588C717.589711678075,255.1324175824173,740,442.97142857142865,740,442.97142857142865" stroke="#1f77b4" fill="none"/><text font-family="sans-serif" font-size="10" class="labels" x="740" y="442.97142857142865" dx="5" dy="4" text-anchor="start">0</text></g><g id="1"><path d="M0,363.1714285714286C0,363.1714285714286,22.410288321924916,270.8857142857142,33.61543248288737,226.1678571428571C44.820576643849826,181.45,56.010371292263024,119.01582298136671,67.23086496577474,94.86428571428593C78.45135863928647,70.71274844720514,89.71790085044597,55.00696687370581,100.93839452395768,81.25863354037241C112.1588881974694,107.51030020703902,123.34868284588259,265.6813664596272,134.55382700684504,252.3742857142856C145.7589711678075,239.06720496894403,156.96411532876994,5.271942719116483,168.1692594897324,1.4161490683228828C179.3744036506949,-2.439644582470718,190.56419829910809,185.41052402370264,201.7846919726198,229.239523809524C213.00518564613154,273.06852359534537,224.271727857291,264.94124057934397,235.49222153080274,264.39014778325117C246.71271520431446,263.83905498715836,257.90250985272763,207.02162802714545,269.1076540136901,225.93296703296724C280.3127981746525,244.84430603878903,291.51794233561503,355.9044216652914,302.7230864965775,377.85818181818195C313.9282306575399,399.8119419710725,325.1180253059531,365.3076679841897,336.3385189794648,357.6555279503105C347.55901265297655,350.0033879164313,358.82555486413605,326.06950310559,370.0460485376478,331.9453416149068C381.2665422111595,337.8211801242236,392.4563368595727,384.79649689440987,403.6614810205351,392.9105590062111C414.86662518149757,401.0246211180123,426.0717693424601,375.22909316770154,437.2769135034225,380.629714285714C448.48205766438497,386.03033540372644,459.67185231279814,442.5147142857142,470.89234598630986,425.3142857142857C482.1128396598216,408.11385714285717,493.37938187098115,271.03714285714284,504.5998755444929,277.4271428571429C515.8203692180045,283.8171428571429,527.0101638664178,431.3725369458129,538.2153080273802,463.65428571428583C549.4204521883426,495.93603448275877,560.625596349305,457.90924261083757,571.8307405102676,471.1176354679804C583.0358846712301,484.3260283251232,594.2256793196432,542.8493452935695,605.446172993155,542.9046428571429C616.6666666666667,542.9599404207163,627.9332088778262,479.1318473200089,639.1537025513379,471.4494208494206C650.3741962248496,463.76699437883235,661.5639908732628,494.51394503747423,672.7691350342253,496.81008403361324C683.9742791951878,499.10622302975224,695.1794233561502,519.5779354985236,706.3845675171126,485.2262548262547C717.589711678075,450.87457415398586,740,290.7,740,290.7" stroke="#d0021b" fill="none"/><text font-family="sans-serif" font-size="10" class="labels" x="740" y="290.7" dx="5" dy="4" text-anchor="start">1</text></g></g></g><text y="4" x="4" style="font-family: Arial, sans-serif; font-size: 12px; fill: black; font-weight: bold; dominant-baseline: hanging;"/></g><g id="grid"><rect x="0" y="0" width="805" height="600" fill="none" stroke="#ccc"/></g></g></svg>